<svg xmlns="http://www.w3.org/2000/svg" viewBox="0 0 32 32">
    <!-- Body -->
    <path d="M8 16 C8 10, 19 10, 24 13 C25.5 14, 26.5 15, 27 16"
          fill="none" stroke="#2C3E50" stroke-width="2" stroke-linecap="round"/>

    <!-- Head -->
    <path d="M27 16 C28 15, 29 15, 29.5 15.5 L30 15 L29.5 16.5 C30 17, 30 17.5, 29.5 18 C28.5 18.5, 28 17.5, 27 16Z"
          fill="#2C3E50"/>

    <!-- Eye -->
    <circle cx="28.5" cy="16.5" r="0.5" fill="#E74C3C"/>

    <!-- Wing -->
    <path d="M16 13 C19 10, 22 8, 25 9 C22 11, 19 12, 16 13Z"
          fill="#2C3E50"/>

    <!-- Tail -->
    <path d="M8 16 C6 18, 4 18.5, 3 17.5 C2 17, 1.5 16.5, 2 16 C3 15, 5 14, 6 15"
          fill="#2C3E50"/>

    <!-- Leg -->
    <path d="M14 16 C13 18, 12.5 19, 13 21 C13.5 22, 14 22, 15 21"
          fill="none" stroke="#2C3E50" stroke-width="1.5" stroke-linecap="round"/>
</svg>